<?xml version="1.0" encoding="UTF-8" standalone="no"?>
<svg
   xmlns:dc="http://purl.org/dc/elements/1.1/"
   xmlns:cc="http://creativecommons.org/ns#"
   xmlns:rdf="http://www.w3.org/1999/02/22-rdf-syntax-ns#"
   xmlns:svg="http://www.w3.org/2000/svg"
   xmlns="http://www.w3.org/2000/svg"
   xmlns:xlink="http://www.w3.org/1999/xlink"
   xmlns:sodipodi="http://sodipodi.sourceforge.net/DTD/sodipodi-0.dtd"
   xmlns:inkscape="http://www.inkscape.org/namespaces/inkscape"
   width="335.06039"
   height="326.1965"
   id="svg2"
   version="1.1"
   inkscape:version="0.91 r"
   sodipodi:docname="wxpyWha.svg">
  <title
     id="title3426">wxpyWha Icon</title>
  <sodipodi:namedview
     pagecolor="#ffffff"
     bordercolor="#666666"
     borderopacity="1"
     objecttolerance="10"
     gridtolerance="10"
     guidetolerance="10"
     inkscape:pageopacity="0"
     inkscape:pageshadow="2"
     inkscape:window-width="1280"
     inkscape:window-height="959"
     id="namedview58"
     showgrid="false"
     fit-margin-top="4"
     fit-margin-left="4"
     fit-margin-right="4"
     fit-margin-bottom="4"
     inkscape:zoom="0.38271843"
     inkscape:cx="-290.51825"
     inkscape:cy="79.926121"
     inkscape:window-x="0"
     inkscape:window-y="0"
     inkscape:window-maximized="1"
     inkscape:current-layer="layer1"
     inkscape:snap-global="false" />
  <defs
     id="defs4">
    <linearGradient
       id="linearGradient4403">
      <stop
         offset="0"
         id="stop4405"
         stop-color="#d4ff2a"
         style="stop-color:#c0c000;stop-opacity:1" />
      <stop
         offset="1"
         id="stop4407"
         stop-color="#95d030"
         style="stop-color:#7bbf6a;stop-opacity:1" />
    </linearGradient>
    <linearGradient
       id="linearGradient5911">
      <stop
         stop-color="#000000"
         id="stop5913"
         offset="0" />
      <stop
         stop-color="#000000"
         stop-opacity="0"
         id="stop5915"
         offset="1" />
    </linearGradient>
    <linearGradient
       id="linearGradient5877">
      <stop
         stop-color="#800000"
         offset="0"
         id="stop5879" />
      <stop
         stop-color="#d40000"
         offset="1"
         id="stop5881" />
    </linearGradient>
    <linearGradient
       id="linearGradient5782">
      <stop
         stop-color="#2c89a0"
         id="stop5784"
         offset="0" />
      <stop
         stop-color="#afdde9"
         id="stop5786"
         offset="1" />
    </linearGradient>
    <linearGradient
       id="linearGradient5594">
      <stop
         stop-color="#000000"
         id="stop5596"
         offset="0" />
      <stop
         stop-color="#000000"
         stop-opacity="0"
         id="stop5598"
         offset="1" />
    </linearGradient>
    <linearGradient
       id="linearGradient5543">
      <stop
         stop-color="#d6d6d6"
         id="stop5545"
         offset="0" />
      <stop
         stop-color="#9f9f9f"
         id="stop5547"
         offset="1" />
    </linearGradient>
    <linearGradient
       id="linearGradient4556">
      <stop
         stop-color="#787878"
         id="stop4558"
         offset="0" />
      <stop
         stop-color="#1b1b1b"
         id="stop4560"
         offset="1" />
    </linearGradient>
    <linearGradient
       id="linearGradient3378">
      <stop
         stop-color="#d4ff2a"
         id="stop3380"
         offset="0" />
      <stop
         stop-color="#95d030"
         id="stop3382"
         offset="1" />
    </linearGradient>
    <linearGradient
       y2="233.36218"
       x2="756"
       y1="286.86218"
       x1="632"
       gradientTransform="translate(-4,-91)"
       gradientUnits="userSpaceOnUse"
       id="linearGradient3431"
       xlink:href="#linearGradient3378" />
    <linearGradient
       y2="104.50504"
       x2="686.92859"
       y1="104.50504"
       x1="563.07141"
       gradientTransform="translate(-4,-91)"
       gradientUnits="userSpaceOnUse"
       id="linearGradient3433"
       xlink:href="#linearGradient3378" />
    <linearGradient
       y2="104.50504"
       x2="686.92859"
       y1="104.50504"
       x1="563.07141"
       gradientTransform="translate(22,-96)"
       gradientUnits="userSpaceOnUse"
       id="linearGradient3460"
       xlink:href="#linearGradient3378" />
    <linearGradient
       y2="139.70028"
       x2="615.60925"
       y1="207.47242"
       x1="517.7226"
       id="linearGradient3554"
       xlink:href="#linearGradient4403"
       gradientTransform="scale(1.2667723,0.78940787)"
       gradientUnits="userSpaceOnUse" />
    <linearGradient
       y2="0.5"
       x2="1"
       y1="0.5"
       x1="0"
       id="linearGradient4562"
       xlink:href="#linearGradient4556" />
    <linearGradient
       y2="0.5"
       x2="1"
       y1="0.5"
       x1="0"
       id="linearGradient5549"
       xlink:href="#linearGradient5543" />
    <linearGradient
       y2="0.90743202"
       x2="0.32520899"
       y1="0.36141601"
       x1="0.42069101"
       id="linearGradient5600"
       xlink:href="#linearGradient5594" />
    <linearGradient
       y2="148.76401"
       x2="356.20392"
       y1="148.76401"
       x1="258.10748"
       id="linearGradient5606"
       xlink:href="#linearGradient4403"
       gradientTransform="scale(1.0853949,0.92132366)"
       gradientUnits="userSpaceOnUse" />
    <linearGradient
       gradientUnits="userSpaceOnUse"
       y2="370.94711"
       x2="421.70108"
       y1="370.94711"
       x1="196.16406"
       id="linearGradient5788"
       xlink:href="#linearGradient5782" />
    <linearGradient
       gradientTransform="translate(0,2)"
       y2="441.66702"
       x2="300.9924"
       y1="291.65472"
       x1="340.67307"
       gradientUnits="userSpaceOnUse"
       id="linearGradient5814"
       xlink:href="#linearGradient5594" />
    <linearGradient
       gradientTransform="translate(23.769064,268.06591)"
       y2="370.94711"
       x2="421.70108"
       y1="370.94711"
       x1="196.16406"
       gradientUnits="userSpaceOnUse"
       id="linearGradient5845"
       xlink:href="#linearGradient5782" />
    <linearGradient
       y2="239.42705"
       x2="398.47333"
       y1="440.9451"
       x1="451.74774"
       gradientTransform="translate(-137.63211,-169.5009)"
       gradientUnits="userSpaceOnUse"
       id="linearGradient5849"
       xlink:href="#linearGradient5877" />
    <filter
       id="filter5883">
      <feGaussianBlur
         id="feGaussianBlur5885"
         stdDeviation="0.794398" />
    </filter>
    <linearGradient
       y2="0.18144301"
       x2="0.210493"
       y1="0.91237098"
       x1="0.709557"
       id="linearGradient5917"
       xlink:href="#linearGradient5911" />
    <linearGradient
       y2="0.18144301"
       x2="0.78950697"
       y1="0.91237098"
       x1="0.290443"
       id="linearGradient5929"
       xlink:href="#linearGradient5911" />
    <linearGradient
       y2="474.09103"
       x2="119.92342"
       y1="674.0849"
       x1="221.01576"
       gradientTransform="matrix(1.000031,0,0,1.000031,-45.00832,-319.1057)"
       gradientUnits="userSpaceOnUse"
       id="lg5"
       xlink:href="#lg3" />
    <linearGradient
       id="lg3">
      <stop
         id="stop3402"
         offset="0"
         style="stop-color:#f00;stop-opacity:1" />
      <stop
         id="stop3404"
         style="stop-color:#ffe0e0;stop-opacity:1"
         offset="1" />
    </linearGradient>
    <linearGradient
       y2="520.74255"
       x2="222.73912"
       y1="520.74255"
       x1="139.43112"
       gradientTransform="matrix(0.545556,0,0,0.350255,-38.51666,72.6073)"
       gradientUnits="userSpaceOnUse"
       id="lg4"
       xlink:href="#lg2" />
    <linearGradient
       id="lg2">
      <stop
         id="stop3397"
         offset="0"
         style="stop-color:#fff;stop-opacity:1" />
      <stop
         id="stop3399"
         offset="1"
         style="stop-color:#fff;stop-opacity:0" />
    </linearGradient>
    <linearGradient
       y2="421.62283"
       x2="220.84492"
       y1="571.52942"
       x1="296.20334"
       gradientTransform="matrix(1.334164,0,0,1.334164,-90.28301,-537.514)"
       gradientUnits="userSpaceOnUse"
       id="lg7"
       xlink:href="#lg1" />
    <linearGradient
       id="lg1">
      <stop
         id="stop3392"
         offset="0"
         style="stop-color:#00f;stop-opacity:1" />
      <stop
         id="stop3394"
         offset="1"
         style="stop-color:#e0e0ff;stop-opacity:1" />
    </linearGradient>
    <linearGradient
       y2="520.74225"
       x2="222.73819"
       y1="520.74225"
       x1="139.62971"
       gradientTransform="matrix(0.545558,0,0,0.350255,91.4834,-57.3926)"
       gradientUnits="userSpaceOnUse"
       id="lg6"
       xlink:href="#lg2" />
    <linearGradient
       y2="571.52942"
       x2="296.72556"
       y1="421.6228"
       x1="221.02206"
       gradientTransform="matrix(1.334164,0,0,1.334164,54.71699,-442.514)"
       gradientUnits="userSpaceOnUse"
       id="lg9"
       xlink:href="#lg0" />
    <linearGradient
       id="lg0">
      <stop
         id="stop3387"
         offset="0"
         style="stop-color:#ffffe0;stop-opacity:1" />
      <stop
         id="stop3389"
         offset="1"
         style="stop-color:#ff0;stop-opacity:1" />
    </linearGradient>
    <linearGradient
       y2="520.74225"
       x2="222.73837"
       y1="520.74225"
       x1="139.43103"
       gradientTransform="matrix(0.545558,0,0,0.350255,236.4833,37.6074)"
       gradientUnits="userSpaceOnUse"
       id="lg8"
       xlink:href="#lg2" />
    <linearGradient
       y2="520.74255"
       x2="222.73912"
       y1="520.74255"
       x1="139.43112"
       gradientTransform="matrix(0.545556,0,0,0.350255,-38.51666,72.6073)"
       gradientUnits="userSpaceOnUse"
       id="linearGradient3536"
       xlink:href="#lg2" />
    <linearGradient
       y2="474.09103"
       x2="119.92342"
       y1="674.0849"
       x1="221.01576"
       gradientTransform="matrix(1.000031,0,0,1.000031,-45.00832,-319.1057)"
       gradientUnits="userSpaceOnUse"
       id="linearGradient3538"
       xlink:href="#lg3" />
    <linearGradient
       y2="520.74225"
       x2="222.73819"
       y1="520.74225"
       x1="139.62971"
       gradientTransform="matrix(0.545558,0,0,0.350255,91.4834,-57.3926)"
       gradientUnits="userSpaceOnUse"
       id="linearGradient3540"
       xlink:href="#lg2" />
    <linearGradient
       y2="421.62283"
       x2="220.84492"
       y1="571.52942"
       x1="296.20334"
       gradientTransform="matrix(1.334164,0,0,1.334164,-90.28301,-537.514)"
       gradientUnits="userSpaceOnUse"
       id="linearGradient3542"
       xlink:href="#lg1" />
    <linearGradient
       y2="520.74225"
       x2="222.73837"
       y1="520.74225"
       x1="139.43103"
       gradientTransform="matrix(0.545558,0,0,0.350255,236.4833,37.6074)"
       gradientUnits="userSpaceOnUse"
       id="linearGradient3544"
       xlink:href="#lg2" />
    <linearGradient
       y2="571.52942"
       x2="296.72556"
       y1="421.6228"
       x1="221.02206"
       gradientTransform="matrix(1.334164,0,0,1.334164,54.71699,-442.514)"
       gradientUnits="userSpaceOnUse"
       id="linearGradient3546"
       xlink:href="#lg0" />
  </defs>
  <metadata
     id="metadata7">image/svg+xml<rdf:RDF>
  <cc:Work
     rdf:about="">
    <dc:format>image/svg+xml</dc:format>
    <dc:type
       rdf:resource="http://purl.org/dc/dcmitype/StillImage" />
    <dc:title>wxpyWha Icon</dc:title>
    <dc:date />
    <dc:creator>
      <cc:Agent>
        <dc:title>https://github.com/hoehermann</dc:title>
      </cc:Agent>
    </dc:creator>
    <dc:rights>
      <cc:Agent>
        <dc:title />
      </cc:Agent>
    </dc:rights>
    <dc:publisher>
      <cc:Agent>
        <dc:title />
      </cc:Agent>
    </dc:publisher>
    <dc:subject>
      <rdf:Bag />
    </dc:subject>
    <cc:license
       rdf:resource="http://creativecommons.org/licenses/by-sa/3.0/" />
    <dc:contributor>
      <cc:Agent>
        <dc:title>Paul Sherman with http://www.wpclipart.com/animals/snake/snake_clipart/snake_nervous_cartoon.png.html
The wxWidgets Project with https://commons.wikimedia.org/wiki/File:WxWidgets.svg
David G. Fandos with https://github.com/davidgfnet/whatsapp-purple/raw/master/whatsapp48.png</dc:title>
      </cc:Agent>
    </dc:contributor>
  </cc:Work>
  <cc:License
     rdf:about="http://creativecommons.org/licenses/by-sa/3.0/">
    <cc:permits
       rdf:resource="http://creativecommons.org/ns#Reproduction" />
    <cc:permits
       rdf:resource="http://creativecommons.org/ns#Distribution" />
    <cc:requires
       rdf:resource="http://creativecommons.org/ns#Notice" />
    <cc:requires
       rdf:resource="http://creativecommons.org/ns#Attribution" />
    <cc:permits
       rdf:resource="http://creativecommons.org/ns#DerivativeWorks" />
    <cc:requires
       rdf:resource="http://creativecommons.org/ns#ShareAlike" />
  </cc:License>
</rdf:RDF>
</metadata>
  <g
     id="g3548"
     transform="matrix(0.43405413,0,0,0.43405413,89.75757,112.46955)">
    <g
       id="g3502"
       style="display:inline">
      <path
         id="path3504"
         d="m 69.33962,154.99997 111.32077,0 c 24.56415,0 44.33961,19.77547 44.33961,44.33962 l 0,111.32078 c 0,24.56414 -19.77546,44.33961 -44.33961,44.33961 l -111.32077,0 C 44.775476,354.99998 25,335.22451 25,310.66037 l 0,-111.32078 c 0,-24.56415 19.775476,-44.33962 44.33962,-44.33962 z"
         style="fill:url(#lg5);fill-opacity:1;fill-rule:nonzero;stroke:none;stroke-width:38;stroke-linecap:butt;stroke-linejoin:round;stroke-miterlimit:20;stroke-dasharray:none;stroke-dashoffset:0;stroke-opacity:1;marker-start:none"
         inkscape:connector-curvature="0" />
      <path
         id="path3506"
         d="m 182.05654,230.00562 c -48.53089,0.52516 -61.79585,56.69111 -104.89889,57.24964 -18.6358,0.23541 -34.530378,-12.5544 -52.157599,-27.69878 l 0,51.65226 c 0,24.24869 19.796853,43.79127 44.361069,43.79124 l 111.31955,0 c 24.56422,0 44.31938,-19.54253 44.31938,-43.79124 l 0,-70.25531 c -12.03236,-6.60668 -25.96585,-11.13587 -42.94351,-10.94781 z"
         style="opacity:0.25;fill:#ff0000;fill-opacity:1;fill-rule:evenodd;stroke:none;stroke-width:1px;stroke-linecap:butt;stroke-linejoin:miter;stroke-opacity:1"
         inkscape:connector-curvature="0" />
      <rect
         id="rect3508"
         rx="17.032595"
         ry="17.032595"
         y="179.99998"
         x="50"
         height="150"
         width="33"
         style="fill:url(#lg4);fill-opacity:1;fill-rule:nonzero;stroke:none;stroke-width:20;stroke-linecap:butt;stroke-linejoin:miter;stroke-miterlimit:4;stroke-dasharray:none;stroke-dashoffset:0;stroke-opacity:0.25098039" />
      <path
         id="path3510"
         d="m 69.46811,161.34322 111.19211,0 c 21.12816,0 37.9969,16.87873 37.9969,38.00595 l 0,111.32031 c 0,21.13499 -16.86549,37.98752 -37.9969,37.98752 l -111.32032,0 c -21.131502,0 -37.9969,-16.86042 -37.9969,-37.98752 l 0,-111.35844 c 0,-21.13196 16.99051,-37.96782 38.12511,-37.96782 z"
         style="opacity:1;fill:none;fill-opacity:0.50196078;fill-rule:nonzero;stroke:#800000;stroke-width:12.68599987;stroke-linecap:butt;stroke-linejoin:round;stroke-miterlimit:20;stroke-dasharray:none;stroke-dashoffset:0;stroke-opacity:0.50196078;marker-start:none"
         inkscape:connector-curvature="0" />
    </g>
    <g
       id="g3512"
       style="display:inline">
      <path
         id="path3514"
         d="m 199.33962,24.99998 111.32078,0 c 24.56415,0 44.3396,19.77547 44.3396,44.3396 l 0,111.32079 c 0,24.56414 -19.77545,44.33961 -44.3396,44.33961 l -111.32078,0 C 174.77548,224.99998 155,205.22451 155,180.66037 l 0,-111.32079 c 0,-24.56413 19.77548,-44.3396 44.33962,-44.3396 z"
         style="fill:url(#lg7);fill-opacity:1;fill-rule:nonzero;stroke:none;stroke-width:38.28099823;stroke-linecap:butt;stroke-linejoin:miter;stroke-miterlimit:4;stroke-dasharray:none;stroke-dashoffset:0;stroke-opacity:0.37647059;marker-start:none"
         inkscape:connector-curvature="0" />
      <path
         id="path3516"
         d="M 312.05649,100.00562 C 263.5256,100.5308 250.26065,156.69674 207.1576,157.25527 188.52179,157.49067 172.62722,144.70086 155,129.55648 l 0,51.65227 c 0,24.24868 19.79685,43.79126 44.36106,43.79123 l 111.31957,0 c 24.5642,0 44.31937,-19.54253 44.31937,-43.79123 l 0,-70.25531 c -12.03236,-6.60669 -25.96585,-11.13588 -42.94351,-10.94782 z"
         style="opacity:0.25;fill:#0000ff;fill-opacity:1;fill-rule:evenodd;stroke:none;stroke-width:1px;stroke-linecap:butt;stroke-linejoin:miter;stroke-opacity:1"
         inkscape:connector-curvature="0" />
      <rect
         id="rect3518"
         rx="17.032595"
         ry="17.032595"
         y="49.999981"
         x="180"
         height="150"
         width="33"
         style="fill:url(#lg6);fill-opacity:1;fill-rule:nonzero;stroke:none;stroke-width:20;stroke-linecap:butt;stroke-linejoin:miter;stroke-miterlimit:4;stroke-dasharray:none;stroke-dashoffset:0;stroke-opacity:0.25098039" />
      <path
         id="path3520"
         style="display:inline;opacity:1;fill:none;fill-opacity:0.50196078;fill-rule:nonzero;stroke:#000080;stroke-width:12.68599987;stroke-linecap:butt;stroke-linejoin:round;stroke-miterlimit:20;stroke-dasharray:none;stroke-dashoffset:0;stroke-opacity:0.50196078;marker-start:none"
         d="m 199.46811,31.34322 111.19211,0 c 21.12816,0 37.9969,16.87873 37.9969,38.00595 l 0,111.32031 c 0,21.13499 -16.86549,37.98752 -37.9969,37.98752 l -111.32032,0 c -21.1315,0 -37.9969,-16.86042 -37.9969,-37.98752 l 0,-111.35844 c 0,-21.13196 16.99051,-37.96782 38.12511,-37.96782 z"
         inkscape:connector-curvature="0" />
    </g>
    <g
       id="g3522">
      <path
         id="path3524"
         d="m 344.33962,119.99997 111.32077,0 c 24.56415,0 44.33961,19.77547 44.33961,44.33962 l 0,111.32078 c 0,24.56414 -19.77546,44.33961 -44.33961,44.33961 l -111.32077,0 C 319.77547,319.99998 300,300.22451 300,275.66037 l 0,-111.32078 c 0,-24.56415 19.77547,-44.33962 44.33962,-44.33962 z"
         style="display:inline;fill:url(#lg9);fill-opacity:1;fill-rule:nonzero;stroke:none;stroke-width:38.28144073;stroke-linecap:butt;stroke-linejoin:miter;stroke-miterlimit:4;stroke-dasharray:none;stroke-dashoffset:0;stroke-opacity:0.37647059;marker-start:none"
         inkscape:connector-curvature="0" />
      <path
         id="path3526"
         d="M 457.05649,195.00562 C 408.5256,195.53079 395.26065,251.69673 352.1576,252.25526 333.52179,252.49067 317.62722,239.70086 300,224.55647 l 0,51.65228 c 0,24.24868 19.79685,43.79126 44.36106,43.79123 l 111.31957,0 C 480.24484,319.99998 500,300.45745 500,276.20875 l 0,-70.25532 c -12.03236,-6.60669 -25.96584,-11.13587 -42.94351,-10.94781 z"
         style="display:inline;opacity:0.25;fill:#c0c000;fill-opacity:1;fill-rule:evenodd;stroke:none;stroke-width:1px;stroke-linecap:butt;stroke-linejoin:miter;stroke-opacity:1"
         inkscape:connector-curvature="0" />
      <rect
         id="rect3528"
         rx="17.032595"
         ry="17.032595"
         y="144.99998"
         x="325"
         height="150"
         width="33"
         style="display:inline;fill:url(#lg8);fill-opacity:1;fill-rule:nonzero;stroke:none;stroke-width:20;stroke-linecap:butt;stroke-linejoin:miter;stroke-miterlimit:4;stroke-dasharray:none;stroke-dashoffset:0;stroke-opacity:0.25098039" />
      <path
         id="path3530"
         d="m 344.46811,126.34322 111.19211,0 c 21.12816,0 37.9969,16.87873 37.9969,38.00595 l 0,111.32031 c 0,21.13499 -16.86549,37.98752 -37.9969,37.98752 l -111.32032,0 c -21.1315,0 -37.9969,-16.86042 -37.9969,-37.98752 l 0,-111.35844 c 0,-21.13196 16.99051,-37.96782 38.12511,-37.96782 z"
         style="display:inline;opacity:1;fill:none;fill-opacity:0.50196078;fill-rule:nonzero;stroke:#808000;stroke-width:12.68599987;stroke-linecap:butt;stroke-linejoin:round;stroke-miterlimit:20;stroke-dasharray:none;stroke-dashoffset:0;stroke-opacity:0.50196078;marker-start:none"
         inkscape:connector-curvature="0" />
    </g>
  </g>
  <g
     id="g44"
     transform="translate(-252.05683,-17.074288)">
    <title
       id="title46">Layer 1</title>
    <g
       externalResourcesRequired="false"
       id="layer1">
      <g
         transform="matrix(0.859646,0,0,0.859646,-226.717,146.447)"
         id="g3550">
        <path
           stroke-miterlimit="4"
           id="path3425"
           d="m 638.33673,31.280451 0.5,21.500006 -4,21 -16,40.000003 -5.5,27.5 1.5,22 11.5,24 20,21 28.5,10.5 28.5,-1 29.5,-13 25,-18.5 16.5,-8.5 23,2 17.5,11.5 22.5,19.5 17.5,9 18,0.5 20.5,-16.5 12,-16 11,-29.5 3.5,-24 -14.5,25.5 -15,15.5 -15.5,3 -25,-9.5 -16,-17 -17,-17 -21,-9.5 -21,-2 -15.5,4 -16.5,9 -33.5,19.5 -18,5.5 -16.5,-7.5 -5.5,-20.5 9,-37.500003 5.5,-26 -0.5,-23.5 -1,-9 -3.5,-8.000006 -23.5,3.000002 -17,-1.000002 z"
           inkscape:connector-curvature="0"
           style="fill:url(#linearGradient3554);fill-rule:evenodd;stroke-width:1px;stroke-miterlimit:4;stroke-dashoffset:0;marker-start:none;marker-mid:none;marker-end:none" />
        <path
           d="m 680.83673,28.730772 c -11.35657,1.304459 -22.92163,4.444479 -36.15625,3.906252 10.90021,1.30024 24.42682,-3.191343 32.40625,-1.687502 14.08417,18.637201 -17.64545,12.690722 -18.375,29.906252 -9.45392,18.809982 23.94745,17.692688 15.625,33.125 -11.47436,-1.861023 -27.42108,9.510486 -24,24.749996 0.006,16.27018 21.33783,8.80898 19.625,24.625 -9.57355,8.10677 -15.02179,30.03376 4.15625,36.5625 8.38794,3.38492 21.03528,4.56699 24.125,-6.5625 -3.14185,-10.50816 13.46173,-25.86422 17.78125,-12.96875 14.11505,13.38855 39.98499,-0.58787 37.40625,-19.4375 -10.97613,-12.01547 2.40924,-12.79455 12.78125,-14.28125 -2.84814,18.19966 22.77643,28.30944 34.28125,15.09375 2.40698,-13.75639 12.33997,-8.97326 20.09375,-1.5625 -13.9151,11.4908 -4.04303,36.23441 14.25,34.40625 8.44,-7.93255 27.61255,-5.13212 21.28125,9.21875 4.43109,19.85256 38.18268,14.54346 36.90625,-5.15625 0.69159,-12.32147 18.63892,-21.87402 22.53125,-36.65625 -2.68323,15.26955 -9.68732,29.74208 -17.65625,42.96875 -9.78338,14.01487 -24.73639,28.69562 -43.28125,26.34375 -19.40472,-6.42556 -32.03345,-24.64854 -49.09375,-35.25 -4.94733,-8.82232 -44.4118,-10.91969 -21.875,-7.28125 26.34619,6.19114 44.23139,28.44478 65.125,43.9375 -15.97589,-7.49043 -28.01642,-21.06999 -42.375,-30.84375 -13.13922,-10.64332 -31.56598,-12.51574 -46.03125,-3.25 -19.60821,12.47762 -36.7641,31.17534 -60.96875,34.34375 -3.9574,0.54334 -7.95007,0.65677 -11.9375,0.78125 -32.39038,2.47 -61.7309,-22.21104 -70.28125,-52.53125 -7.32495,-28.12329 5.93176,-55.85731 15.71875,-81.656246 8.22083,-12.44928 6.64752,-37.871822 7.75,-45.4375 5.96094,34.148392 -17.12311,63.609703 -20,96.624996 -4.60748,20.20472 2.86304,41.48757 16.5625,56.53125 14.04181,18.22261 37.73352,24.83528 59.90625,22.25 29.85559,-1.80224 48.16882,-29.07383 73.625,-41.0625 -22.18976,7.02237 -39.3139,28.91027 -62.28125,36.96875 -22.64917,6.96706 -49.63428,1.33504 -66.84375,-15.28125 -11.21735,-11.18263 -20.20404,-26.46792 -20.5,-42.53125 -2.00732,-27.17619 11.34357,-51.97015 18.6875,-77.437496 4.763,-11.774658 3.35346,-26.105553 4.21875,-37.59375 -4.42377,-0.219841 -9.05383,-0.865454 -13.90625,-2.125002 8.60034,7.800955 5.71399,25.226225 2.5,37.125002 -9.41351,25.83094 -23.70697,51.439116 -21.84375,79.874996 -1.08142,26.15546 15.72131,48.9058 36.75,62.71875 12.37018,5.86606 -0.70734,4.31826 -7.75,6.15625 -7.03754,7.29555 20.48694,4.88028 26.84375,7.125 19.00745,1.43457 38.14581,0.87331 57.125,-0.71875 18.10785,-3.5019 -14.02136,-3.42488 -11.53125,-7.96875 24.6546,-6.31413 39.75147,-30.75602 64.625,-36.5 23.3617,-2.27494 39.86981,17.86995 56.59375,30.9375 17.32562,7.06566 -3.40985,8.35942 -10.75,10.59375 24.41809,3.68586 49.22632,5.10395 73.84375,2.78125 14.99146,-4.48127 -11.68249,-5.14193 -17.03125,-7.5 28.26508,-20.4768 45.11932,-55.58279 42.75,-90.46875 1.56189,-4.99612 -7.76367,-34.254169 -6.78125,-20.9375 1.14569,22.65047 -3.70496,49.05545 -22.3125,63.84375 -18.64752,13.98035 -42.40588,1.45679 -54.6875,-14.8125 -14.03363,-15.28094 -29.20801,-33.10395 -51.5625,-34.28125 -33.17352,-3.16325 -56.70752,25.41288 -85.90625,35.375 -13.34228,8.93511 -28.69818,-5.99276 -29.78125,-18.96875 3.07965,-32.45951 19.13538,-63.509548 12.59375,-96.656246 l -2.96875,-9.468752 z m -2.90625,23.781252 c 4.03717,0.02771 3.56665,11.433258 1.5,18 -4.68109,8.628418 -14.48291,-6.902786 -8.5,-11.84375 3.14362,-4.441978 5.42023,-6.167091 7,-6.15625 z m 210.90625,34.28125 c -5.05237,9.117638 12.87848,21.154616 11.21875,33.468746 5.42242,-3.84454 -4.74408,-28.926014 -11.21875,-33.468746 z m 52.4375,1.09375 c -4.15088,-0.308769 -10.36249,19.704516 -8.5,26.187496 l 0.25,2.375 c 4.86536,-4.16313 -0.28906,-21.953014 9.03125,-28.218746 -0.25543,-0.211281 -0.50452,-0.323174 -0.78125,-0.34375 z M 667.68048,105.01202 c 3.78516,0.25321 4.21655,9.39621 1.6875,16.03125 -1.0589,8.67084 -14.19873,-5.37753 -8.96875,-9.78125 3.14807,-4.62101 5.56073,-6.36509 7.28125,-6.25 z m 117.1875,19.46875 c 8.65985,-0.23361 18.58631,3.87395 7.875,11.4375 -4.13104,4.42516 -12.61267,2.48221 -15.46875,-2.625 -5.10498,-5.82 0.85828,-8.63081 7.59375,-8.8125 z m -45.78125,13.84375 c 7.1236,-0.51307 8.46234,15.7825 -3.28125,18.03125 l -2,0.40625 -2.09375,0.1875 c -14.27631,-0.49092 -11.8432,-11.73129 0.1875,-13.5625 2.74268,-3.45097 5.19287,-4.91884 7.1875,-5.0625 z m 86.625,11.875 c 5.57324,0.17394 15.5094,7.75051 11.875,14.0625 -4.71088,2.94962 -10.59204,-0.50007 -13.34375,-4.53125 -3.64435,-7.07451 -1.87518,-9.6356 1.46875,-9.53125 z m -150.375,6.28125 c 7.46527,-0.19473 24.21777,6.10753 12.9375,14.03125 -8.05566,8.91623 -21.76196,-4.23597 -15.46875,-13.5625 0.5777,-0.30798 1.46478,-0.44093 2.53125,-0.46875 z m 231.1875,16.46875 c 0.82269,4.96097 -11.77844,23.27665 -20.53125,30.3125 l -1.9375,1.4375 -1.5625,1.125 c 2.81372,-2.86616 19.67645,-21.37112 24.03125,-32.875 z m -32.25,4.34375 c 6.34711,0.24778 12.14838,3.18097 4.625,10.21875 -5.08527,4.14907 -18.09479,0.46909 -13.84375,-8.0625 1.41473,-1.46846 5.41046,-2.30491 9.21875,-2.15625 z m 3.3125,31.59375 c -3.32147,2.91712 -3.17908,0.53945 0,0 z m -9.3125,3.8125 c 0.37439,0.007 0.25189,0.22231 -0.71875,0.78125 -11.56677,3.07552 -0.90375,-0.81327 0.71875,-0.78125 z"
           id="path3429"
           inkscape:connector-curvature="0"
           style="fill:#000000" />
      </g>
      <path
         stroke-miterlimit="4"
         id="path5613"
         d="m 349.56171,39.484497 c -2.79767,-0.213654 8.17157,9.413704 12.03506,11.981323 8.32382,4.050186 -3.93997,-8.364174 -5.99066,-9.106873 -3.4025,-1.970215 -5.26105,-2.814621 -6.0444,-2.874451 z m -25.7088,0.188049 c -2.95435,-0.281937 -18.2887,6.121597 -18.80475,12.41114 3.71609,0.784157 8.4938,-5.799156 12.59918,-7.253258 6.32825,-3.516876 7.54846,-5.029732 6.20556,-5.157883 z m 1.88049,13.37825 c -18.38785,1.509796 -36.55975,16.906662 -36.18573,36.427513 2.21014,7.484962 -13.97919,29.471791 -9.05316,13.002151 13.70517,-15.724335 -25.32727,5.87916 -6.12497,3.06249 6.91928,14.56706 -0.71704,32.49289 8.83822,46.25971 2.31299,6.03228 -2.29473,13.92167 -2.17596,20.55092 -5.06546,15.56922 4.89883,3.07746 9.24118,-2.76699 1.44013,-0.53763 -8.66458,18.03845 -8.24722,25.68193 -6.45957,5.79712 -7.66886,13.37123 -5.31906,21.65235 3.56982,18.65832 5.11419,-19.76299 9.26806,-0.64473 -0.91906,13.10402 5.46555,6.02313 5.39966,-1.93421 -2.65384,-15.57212 -3.05344,-33.82789 13.08273,-42.57936 3.53568,-0.20633 6.38071,0.25231 8.67707,1.20888 l 0.0537,-0.13432 c 6.44735,3.74595 16.6716,4.43281 26.40728,3.97587 5.33399,-0.60279 10.59961,-1.58458 14.77515,-1.47752 2.77148,-0.40463 5.18002,-0.80138 7.06522,-1.15515 l 0,0.0269 c 1.12014,-0.83145 6.34149,8.39622 8.13977,13.56628 6.85327,1.03284 -0.45087,-17.63511 1.10144,-23.34475 0.98492,-9.64972 12.92905,-15.91336 13.59314,-26.72963 3.83707,-10.54352 0.21625,-26.30117 8.51587,-33.84857 17.75577,2.02037 -17.89459,-15.46475 -6.50107,-2.68641 -0.13724,16.7987 -6.41556,-2.735241 -9.26807,-7.575626 9.9719,-11.257675 7.23236,-32.188522 -8.22036,-37.018524 -14.66474,-7.790703 -29.05494,3.263268 -43.0629,-3.519173 z m -0.56415,3.680367 c 2.22681,0.0057 4.49143,0.464676 6.716,1.477509 11.89512,10.016357 -2.99789,9.142456 -11.41717,10.933632 -14.91956,9.560989 14.68997,23.250755 -3.8147,25.789383 -17.68002,10.742833 -30.78802,-9.249168 -16.52133,-22.968674 6.06088,-6.940025 15.3877,-15.256401 25.0372,-15.23185 z m 27.40122,0.376083 c 6.14645,0.03006 13.04931,1.818413 16.92431,3.680367 14.79877,7.614464 11.39447,32.146721 -5.9638,33.687386 -2.41971,0.453232 -4.88095,0.540581 -7.33387,0.510422 -18.62442,0.940804 0.67246,-6.678268 0.48355,-15.339317 1.30314,-14.870026 -19.89849,-3.392761 -16.52133,-15.688545 0.87528,-5.14521 6.26471,-6.880371 12.41114,-6.850311 z m -22.48511,13.16333 c 2.97552,-0.167587 5.30652,1.45034 4.78177,5.990662 -5.75119,-7.540565 -15.32501,3.35704 -6.93088,10.262032 0.80841,2.04911 -4.0668,1.241837 -3.25055,-0.45668 -10.79822,-6.302368 -1.14648,-15.427307 5.39966,-15.796013 z m 15.31244,2.175987 c 6.53814,0.05484 13.60669,10.304283 2.9013,15.581085 -5.2196,3.96669 -16.78448,-1.152946 -9.77847,-7.924858 1.04205,-5.605911 3.9053,-7.681152 6.87717,-7.656227 z m -1.77301,5.02356 c -2.85681,0.129654 -4.9964,1.959496 -2.41776,6.769714 l 1.74616,0.725319 2.28345,0.05373 c 9.88162,-3.25824 3.14953,-7.76487 -1.61185,-7.548767 z m -9.32178,11.685814 c 8.47568,11.085143 24.28259,13.260003 36.56183,7.844276 12.71582,2.062347 13.25336,29.332137 10.15457,41.934617 -6.34827,13.93529 -17.31958,27.84926 -32.58597,32.15614 -17.24362,4.67174 -36.79815,1.63558 -51.57876,-8.51587 -13.79834,-7.49246 -16.55646,-23.74969 -16.95117,-38.01248 3.76773,-8.15839 6.99579,-27.532638 16.89743,-22.67317 13.95272,3.75143 27.03756,-4.395249 37.50207,-12.733514 z m 11.20224,10.826172 c -1.27255,0.217721 8.56961,4.562191 14.26477,4.647471 12.11453,-0.47878 -3.10785,-2.39031 -6.74286,-2.49835 -4.82443,-1.68654 -7.02392,-2.23431 -7.52191,-2.14912 z m -32.55908,3.250541 c -4.9093,0.0617 -12.99994,0.55852 -15.90347,1.15515 4.14215,1.0733 8.46917,0.45255 12.67981,0.34923 9.85507,-1.19505 8.13296,-1.56606 3.22366,-1.50438 z m 34.46643,0.85963 c -2.20145,-0.25441 3.22357,3.44452 7.92487,4.62061 10.63336,1.8456 2.88556,-1.37238 -2.87442,-2.82071 -2.737,-1.19934 -4.31662,-1.71509 -5.05045,-1.7999 z m -34.57388,3.65351 c -0.0519,-0.0395 -1.22443,0.1578 -4.45941,0.83278 -5.32489,1.59443 4.61505,-0.71419 4.45941,-0.83278 z m -3.94901,24.20442 c -1.51727,0.17099 -7.15155,12.6033 2.04166,14.88261 l 2.04165,0.6716 2.49836,0.21492 c 16.84875,-4.60688 -12.25199,2.6697 -7.81742,-8.99942 1.79331,-5.03428 1.82944,-6.83662 1.23575,-6.76971 z m 33.60678,0.8865 c -0.12426,0.0289 0.23279,0.59501 1.5044,2.12226 5.65921,4.63272 -1.06052,-2.22531 -1.5044,-2.12226 z m -28.15341,0.53728 c -2.38223,0.0551 -3.76721,2.29068 -0.53726,8.78452 13.27728,-1.07906 5.08517,-8.88961 0.53726,-8.78452 z m 25.76254,2.95503 c -4.81372,0.0323 -11.95395,4.94522 -3.03564,7.89801 1.96234,2.39717 4.0531,0.20397 5.21161,-1.20889 2.77121,-4.96847 0.71225,-6.70851 -2.17597,-6.68912 z m 6.33988,4.56688 c -0.13233,3.5e-4 -0.27454,0.0623 -0.4567,0.18805 0.62644,10.84061 -16.74441,1.49703 -8.32782,7.36072 7.22074,5.5024 10.76963,-7.55388 8.78452,-7.54877 z m -57.73062,19.90619 c 0.98172,-0.0884 1.49261,1.3291 0.56415,5.15787 -1.43192,1.90909 -2.77243,3.90944 -4.51316,5.56084 -1.49252,-4.88517 2.07483,-10.54995 3.94901,-10.71871 z m 75.54141,5.15787 c 0.50815,0.0156 1.45422,1.01808 3.03564,3.5729 l 0.61786,3.43859 c 0.31882,11.18332 -5.8554,-7.07897 -3.6535,-7.01149 z m -67.07925,2.41775 c 1.20739,0.0426 2.53414,0.78582 4.0296,2.49836 -9.70508,8.2859 -17.40314,24.08571 -12.49176,38.7378 1.16681,18.16057 -4.78702,-15.79979 -9.69788,1.82674 -0.37533,-7.09622 7.32773,-16.98367 7.62937,-25.97742 2.50186,-4.31666 5.29858,-17.26999 10.53067,-17.08548 z"
         inkscape:connector-curvature="0"
         style="fill:#ffffff;stroke:#ffffff;stroke-width:2.4000001;stroke-miterlimit:4;filter:url(#filter5883)" />
      <path
         id="path2407"
         d="m 294.08713,100.83185 -13.50873,19.03502 0.61404,27.01745 7.36838,15.96488 20.26309,13.50874 32.54377,5.52628 19.03503,-6.14032 15.96484,-15.35083 7.98243,-13.50875 1.8421,-24.56131 -6.7544,-16.57888 -6.14032,-5.52631 -14.12274,3.07016 -13.50873,-2.45613 -11.05258,-8.59646 c -4.76022,9.76753 -10.02045,17.53506 -20.03067,16.05259 l -11.89905,-1.92983 -8.59646,-5.5263 z"
         inkscape:connector-curvature="0"
         style="fill:url(#linearGradient5606);fill-rule:evenodd;stroke-width:1px;fill-opacity:1.0" />
      <path
         d="m 350.31198,46.984501 c -2.79797,-0.213699 8.17102,9.4137 12.03501,11.981499 8.32403,4.049999 -3.94001,-8.364399 -5.991,-9.107101 -3.40201,-1.970207 -5.26099,-2.814598 -6.04401,-2.874397 z m -25.70898,0.188 c -2.95401,-0.281902 -18.289,6.121601 -18.805,12.411499 3.71601,0.784 8.49402,-5.7995 12.599,-7.253601 6.32901,-3.5168 7.54901,-5.029697 6.206,-5.157898 z m 1.88,13.37849 c -18.38699,1.51001 -35.55899,16.90601 -35.185,36.427006 2.20999,7.485003 -14.98001,29.472003 -10.053,13.002013 13.70501,-15.724013 -25.32801,5.87999 -6.125,3.06299 6.919,14.567 -2.667,33.76399 17.33801,52.50999 29.035,21.00301 19.13,13.96201 21.42599,14.918 l 0.054,-0.13398 c 6.44702,3.74598 16.672,4.433 26.40701,3.97599 5.33402,-0.60299 10.60001,-1.585 14.775,-1.47799 2.772,-0.40401 5.17999,-0.80101 7.06601,-1.15502 l 0,0.027 c 1.11999,-0.83099 -2.15903,-7.854 -0.361,-2.684 6.85401,1.033 8.04899,-1.385 9.60199,-7.094 0.98502,-9.64999 12.92899,-15.914 13.59299,-26.72999 3.83701,-10.543 0.216,-26.30103 8.51602,-33.84801 17.75598,2.02 -17.89502,-15.464998 -6.501,-2.687 -0.138,16.799 -6.41599,-2.735 -9.26801,-7.575 9.97199,-11.258006 7.232,-32.188998 -8.22098,-37.019 -14.664,-7.790699 -29.05502,3.263 -43.06302,-3.519009 z m 3.43601,5.680012 c 1.13,54.971997 -15.51099,40.912017 -22.51599,39.701007 -7.00501,-1.21102 -20.53803,-13.499011 -6.271,-27.219012 6.06097,-6.939995 19.138,-12.505997 28.78699,-12.481995 z m 23.901,-0.624016 c 6.147,0.03001 12.54999,0.819016 16.42499,2.681015 14.79901,7.613998 11.39401,32.146018 -5.96399,33.687018 -2.42002,0.45297 7.62902,-0.031 -7.33399,0.50998 -14.96301,0.541 -27.41504,-15.982002 -23.03802,-27.027 4.37701,-11.044998 13.76501,-9.880997 19.91101,-9.851013 z m -25.51703,40.549023 c 11.21399,-6.337987 31.03302,3.75999 43.31201,-1.65601 12.716,2.063 13.25299,29.332 10.15399,41.935 -6.34796,13.935 -17.31897,27.849 -32.586,32.156 -17.24298,4.672 -33.79797,-1.11399 -48.57797,-11.266 -13.79901,-7.49201 -21.71805,-24.103 -19.95102,-35.262 1.76703,-11.15899 8.495,-30.783 18.39701,-25.92399 13.953,3.752 18.03799,6.355 29.25198,0.017 z m 17.95203,1.32597 c -1.27201,0.21802 8.57,4.56203 14.26501,4.64802 12.11499,-0.479 -3.108,-2.391 -6.74304,-2.499 -4.82398,-1.68599 -7.02399,-2.234 -7.52197,-2.14902 z m -32.55903,3.25102 c -4.90896,0.061 -13,0.558 -15.90298,1.155 4.142,1.073 8.46899,0.452 12.68002,0.349 9.85498,-1.19499 8.13199,-1.56598 3.22296,-1.504 z m 34.46701,0.85901 c -2.20199,-0.25401 3.223,3.44499 7.92402,4.62099 10.634,1.845 2.88598,-1.372 -2.874,-2.821 -2.73703,-1.19901 -4.31701,-1.715 -5.05002,-1.79999 z m -34.574,3.65399 c -0.052,-0.04 -1.22498,0.15801 -4.45999,0.83299 -5.32498,1.594 4.61502,-0.71499 4.45999,-0.83299 z m -3.94898,24.204 c -1.51803,0.171 -7.152,12.604 2.04099,14.88299 l 2.04202,0.67101 2.49799,0.21499 c 16.849,-4.60699 -12.25202,2.67002 -7.81702,-8.99899 1.79303,-5.034 1.82901,-6.83701 1.23602,-6.77 z m 33.60599,0.88701 c -0.12402,0.029 0.233,0.595 1.50501,2.12199 5.65899,4.633 -1.06101,-2.22501 -1.50501,-2.12199 z m -28.15298,0.53698 c -2.38202,0.055 -3.767,2.291 -0.53702,8.78501 13.27698,-1.08001 5.08499,-8.89 0.53702,-8.78501 z m 25.763,2.95501 c -4.81403,0.032 -11.95401,4.945 -3.03601,7.89801 1.96197,2.39698 4.05301,0.20399 5.21197,-1.209 2.771,-4.96801 0.71204,-6.70801 -2.17596,-6.68902 z m 6.33899,4.567 c -0.13202,0 -0.27399,0.062 -0.45603,0.188 0.62601,10.841 -16.74496,1.49699 -8.32797,7.36101 7.22101,5.502 10.76999,-7.554 8.784,-7.54901 z"
         id="path2200"
         inkscape:connector-curvature="0"
         style="fill:#000000" />
      <circle
         id="svg_3"
         cy="-443.36218"
         cx="-318.09448"
         stroke-linecap="null"
         stroke-linejoin="null"
         stroke-width="null"
         r="0"
         style="fill:#000000;stroke-dasharray:none" />
      <ellipse
         id="svg_7"
         ry="7.375001"
         rx="6.375"
         cy="88.012817"
         cx="349.40552"
         stroke-linecap="null"
         stroke-linejoin="null"
         stroke-width="null"
         style="fill:#000000;stroke-dasharray:none" />
      <ellipse
         id="svg_8"
         ry="7.375001"
         rx="6.375"
         cy="87.637817"
         cx="318.65552"
         stroke-linecap="null"
         stroke-linejoin="null"
         stroke-width="null"
         style="fill:#000000;stroke-dasharray:none" />
    </g>
  </g>
  <path
     style="fill:#7bbf6a;fill-opacity:0.99851577;stroke:#000000;stroke-width:1.85621953;stroke-miterlimit:4;stroke-dasharray:none"
     d="M 209.68882,8.5778508 A 55.072255,46.50546 0 0 0 154.61739,55.08301 55.072255,46.50546 0 0 0 171.21566,88.29785 c -3.27093,9.57148 -7.32926,16.63751 -18.43154,23.69351 17.47014,1.46616 33.71009,-2.59953 49.00077,-10.9411 a 55.072255,46.50546 0 0 0 7.90393,0.54157 55.072255,46.50546 0 0 0 55.07507,-46.50882 55.072255,46.50546 0 0 0 -55.07507,-46.5051592 z"
     id="path3578"
     inkscape:connector-curvature="0" />
</svg>
